<svg width="474" height="382" viewBox="0 0 474 382" fill="none" xmlns="http://www.w3.org/2000/svg">
<path d="M466.5 173.5C466.5 218.442 441.632 259.767 400.154 290.131C358.681 320.492 301.022 339.5 237 339.5C172.978 339.5 115.319 320.492 73.8459 290.131C32.3678 259.767 7.5 218.442 7.5 173.5C7.5 128.558 32.3678 87.2335 73.8459 56.8687C115.319 26.5075 172.978 7.5 237 7.5C301.022 7.5 358.681 26.5075 400.154 56.8687C441.632 87.2335 466.5 128.558 466.5 173.5Z" fill="white" stroke="black" stroke-width="15"/>
<path d="M100.992 320.742L57.5332 345.125L65.8546 295.993L100.992 320.742Z" fill="white" stroke="black" stroke-width="15"/>
</svg>
