<svg width="90" height="90" viewBox="0 0 90 90" fill="none" xmlns="http://www.w3.org/2000/svg">
<circle cx="45" cy="45" r="44" stroke="black" stroke-width="2"/>
<path d="M16.3537 56L10.527 35.6364H15.2301L18.6009 49.7855H18.7699L22.4886 35.6364H26.5156L30.2244 49.8153H30.4034L33.7741 35.6364H38.4773L32.6506 56H28.4545L24.5767 42.6861H24.4176L20.5497 56H16.3537ZM45.087 35.6364V56H40.7816V35.6364H45.087ZM53.2131 56L47.3864 35.6364H52.0895L55.4602 49.7855H55.6293L59.348 35.6364H63.375L67.0838 49.8153H67.2628L70.6335 35.6364H75.3366L69.5099 56H65.3139L61.4361 42.6861H61.277L57.4091 56H53.2131Z" fill="black"/>
</svg>
